<svg data-v-fde0c5aa="" xmlns="http://www.w3.org/2000/svg" viewBox="0 0 300 300" class="iconLeft"><!----><defs data-v-fde0c5aa=""><!----></defs><rect data-v-fde0c5aa="" fill="#F3E6FC" x="0" y="0" width="300px" height="300px" class="logo-background-square"></rect><defs data-v-fde0c5aa=""><!----></defs><g data-v-fde0c5aa="" id="751331a3-6031-4b9b-9d4d-8fcdf9d753cd" fill="#382345" transform="matrix(1.6929053218079873,0,0,1.6929053218079873,78.38511510677313,135.99120830059087)"><path d="M1.37 13.71L1.31 13.71L3.67 3.46L5.11 2.84L5.18 2.84L4.06 7.70L8.86 7.70Q8.98 7 8.98 6.46L8.98 6.46Q8.98 5.98 8.89 5.62L8.89 5.62Q8.57 4.44 7.48 3.86L7.48 3.86L8.23 2.84L8.30 2.84Q9.67 3.35 10.19 5.09L10.19 5.09Q10.35 5.64 10.35 6.34L10.35 6.34Q10.35 7.19 10.10 8.28L10.10 8.28Q9.63 10.29 8.72 11.31L8.72 11.31Q8.16 11.93 7.58 12.28L7.58 12.28L9.52 12.28L9.51 12.35L8.74 13.44L4.96 13.44L4.98 13.37L5.74 12.28Q6.75 11.96 7.51 10.99L7.51 10.99Q8.34 9.95 8.59 8.86L8.59 8.86L3.79 8.86L2.82 13.10L1.37 13.71ZM14.24 12.48L13.47 13.58Q11.96 13.58 11.46 12.00L11.46 12.00Q11.32 11.57 11.32 11.03L11.32 11.03Q11.32 10.42 11.49 9.68L11.49 9.68Q11.83 8.24 12.52 7.36L12.52 7.36Q13.75 5.78 15.28 5.78L15.28 5.78Q16.82 5.78 17.29 7.36L17.29 7.36Q17.42 7.80 17.42 8.33L17.42 8.33Q17.42 8.94 17.25 9.68L17.25 9.68L16.66 12.25Q16.59 12.55 16.92 12.55L16.92 12.55L17.45 12.55L17.43 12.62L16.67 13.71Q15.24 13.71 15.24 12.69L15.24 12.69Q15.24 12.49 15.29 12.25L15.29 12.25L15.89 9.68Q16.08 8.83 16.08 8.31L16.08 8.31Q16.08 8.05 16.03 7.85L16.03 7.85Q15.78 6.95 15.00 6.95Q14.23 6.95 13.57 7.85L13.57 7.85Q13.15 8.42 12.86 9.68L12.86 9.68Q12.67 10.51 12.67 11.03L12.67 11.03Q12.67 11.31 12.72 11.51L12.72 11.51Q12.97 12.41 13.73 12.41L13.73 12.41L14.26 12.41L14.24 12.48ZM26.79 2.84L26.86 2.84L25.28 9.68Q24.95 11.11 24.25 12.00L24.25 12.00Q23.02 13.58 21.49 13.58L21.49 13.58Q20.00 13.58 19.48 12.00L19.48 12.00Q19.34 11.58 19.34 11.04L19.34 11.04Q19.34 10.44 19.51 9.68L19.51 9.68Q19.89 8.03 21.46 7.08L21.46 7.08L19.77 7.08L19.78 7.01L20.55 5.92L23.75 5.92L23.73 5.99L22.97 7.08Q22.01 7.66 21.58 8.20L21.58 8.20Q21.07 8.86 20.88 9.68L20.88 9.68Q20.69 10.51 20.69 11.03L20.69 11.03Q20.69 11.31 20.74 11.51L20.74 11.51Q20.99 12.41 21.77 12.41Q22.54 12.41 23.21 11.50L23.21 11.50Q23.61 10.95 23.91 9.68L23.91 9.68L25.35 3.46L26.79 2.84ZM29.09 3.82L29.09 3.82Q29.17 3.47 29.46 3.23Q29.76 2.98 30.11 2.98Q30.45 2.98 30.63 3.23L30.63 3.23Q30.76 3.40 30.76 3.62L30.76 3.62Q30.76 3.70 30.73 3.82L30.73 3.82Q30.63 4.18 30.36 4.41L30.36 4.41Q30.06 4.66 29.71 4.66L29.71 4.66Q29.37 4.66 29.18 4.40L29.18 4.40Q29.06 4.24 29.06 4.04L29.06 4.04Q29.06 3.94 29.09 3.82ZM29.42 12.62L28.66 13.71Q27.23 13.71 27.23 12.69L27.23 12.69Q27.23 12.49 27.28 12.25L27.28 12.25L28.66 6.26L30.11 5.65L30.17 5.65L28.65 12.25Q28.58 12.55 28.91 12.55L28.91 12.55L29.44 12.55L29.42 12.62ZM33.10 3.35L34.28 2.84L34.35 2.84L33.58 6.15L32.40 6.66L32.33 6.66L33.10 3.35ZM34.08 12.02L34.08 12.02Q34.08 12.02 35.27 11.51L35.27 11.51L35.34 11.51Q35.59 12.41 36.37 12.41L36.37 12.41Q37.11 12.41 37.64 11.92L37.64 11.92Q38.06 11.53 38.18 11.04L38.18 11.04Q38.21 10.90 38.21 10.77L38.21 10.77Q38.21 10.45 38.01 10.25L38.01 10.25Q37.71 9.95 37.04 9.84L37.04 9.84Q36.18 9.70 35.74 9.32L35.74 9.32Q35.29 8.93 35.29 8.30L35.29 8.30Q35.29 8.07 35.35 7.80L35.35 7.80Q35.56 6.86 36.59 6.23L36.59 6.23Q37.30 5.78 38.10 5.78L38.10 5.78Q39.45 5.78 39.76 7.08L39.76 7.08L38.56 7.59L38.49 7.59Q38.33 6.95 37.83 6.95L37.83 6.95Q37.42 6.95 37.12 7.15L37.12 7.15Q36.76 7.39 36.65 7.83L36.65 7.83Q36.63 7.94 36.63 8.03L36.63 8.03Q36.63 8.30 36.85 8.43L36.85 8.43Q37.17 8.61 37.84 8.76L37.84 8.76Q38.70 8.95 39.14 9.37L39.14 9.37Q39.57 9.78 39.57 10.48L39.57 10.48Q39.57 10.77 39.50 11.12L39.50 11.12Q39.31 12.00 38.32 12.81L38.32 12.81Q37.39 13.58 36.09 13.58L36.09 13.58Q34.56 13.58 34.08 12.02ZM46.49 13.71L46.42 13.71L47.67 8.28Q48.13 6.29 49.07 5.09L49.07 5.09Q50.71 2.98 52.74 2.98L52.74 2.98Q54.45 2.98 55.14 4.24L55.14 4.24Q55.51 4.92 55.51 5.71L55.51 5.71Q55.51 6.13 55.41 6.57L55.41 6.57Q55.14 7.75 54.08 8.76L54.08 8.76Q52.77 10.02 50.77 10.02L50.77 10.02L49.45 10.02L49.47 9.95L50.24 8.86L51.04 8.86Q52.33 8.86 53.03 8.23L53.03 8.23Q53.83 7.51 54.04 6.57L54.04 6.57Q54.13 6.19 54.13 5.86L54.13 5.86Q54.13 5.22 53.81 4.78L53.81 4.78Q53.33 4.14 52.47 4.14L52.47 4.14Q51.21 4.14 50.12 5.62L50.12 5.62Q49.44 6.54 49.04 8.28L49.04 8.28L47.93 13.10L46.49 13.71ZM57.36 9.68L57.36 9.68Q57.17 10.53 57.17 11.05L57.17 11.05Q57.17 11.32 57.22 11.51L57.22 11.51Q57.48 12.41 58.24 12.41Q59.01 12.41 59.68 11.51L59.68 11.51Q60.10 10.94 60.39 9.68L60.39 9.68Q60.58 8.84 60.58 8.31L60.58 8.31Q60.58 8.03 60.53 7.85L60.53 7.85Q60.29 6.95 59.50 6.95L59.50 6.95Q58.70 6.95 58.04 7.86L58.04 7.86Q57.65 8.42 57.36 9.68ZM55.99 9.69L55.99 9.69Q56.32 8.25 57.02 7.36L57.02 7.36Q58.26 5.78 59.77 5.78Q61.29 5.78 61.79 7.36L61.79 7.36Q61.93 7.79 61.93 8.33L61.93 8.33Q61.93 8.93 61.76 9.68L61.76 9.68Q61.41 11.14 60.73 12.00L60.73 12.00Q59.48 13.58 57.97 13.58L57.97 13.58Q56.48 13.58 55.95 12.00L55.95 12.00Q55.82 11.59 55.82 11.07L55.82 11.07Q55.82 10.47 55.99 9.69ZM62.95 13.71L62.88 13.71L63.81 9.68Q64.13 8.25 64.83 7.36L64.83 7.36Q66.07 5.78 67.59 5.78L67.59 5.78L68.51 5.78L68.49 5.85L67.72 6.95L67.31 6.95Q66.54 6.95 65.88 7.85L65.88 7.85Q65.47 8.41 65.17 9.68L65.17 9.68L64.39 13.10L62.95 13.71ZM71.18 12.62L70.42 13.71Q68.99 13.71 68.99 12.69L68.99 12.69Q68.99 12.49 69.04 12.25L69.04 12.25L70.24 7.08L68.48 7.08L68.50 7.01L69.26 5.92L70.51 5.92L71.07 3.46L72.52 2.84L72.58 2.84L71.87 5.92L73.63 5.92L73.62 5.99L72.85 7.08L71.61 7.08L70.41 12.25Q70.34 12.55 70.67 12.55L70.67 12.55L71.20 12.55L71.18 12.62ZM73.27 13.71L73.20 13.71L74.78 6.88Q75.11 5.46 75.80 4.56L75.80 4.56Q77.03 2.98 78.55 2.98L78.55 2.98L79.47 2.98L79.46 3.05L78.69 4.14L78.29 4.14Q77.53 4.14 76.85 5.04L76.85 5.04Q76.49 5.53 76.21 6.60L76.21 6.60L78.64 6.60L78.63 6.67L77.86 7.77L75.94 7.77L74.71 13.10L73.27 13.71ZM80.19 9.68L80.19 9.68Q79.99 10.53 79.99 11.05L79.99 11.05Q79.99 11.32 80.04 11.51L80.04 11.51Q80.30 12.41 81.07 12.41Q81.83 12.41 82.50 11.51L82.50 11.51Q82.93 10.94 83.21 9.68L83.21 9.68Q83.41 8.84 83.41 8.31L83.41 8.31Q83.41 8.03 83.35 7.85L83.35 7.85Q83.12 6.95 82.33 6.95L82.33 6.95Q81.53 6.95 80.87 7.86L80.87 7.86Q80.47 8.42 80.19 9.68ZM78.82 9.69L78.82 9.69Q79.15 8.25 79.84 7.36L79.84 7.36Q81.08 5.78 82.60 5.78Q84.12 5.78 84.62 7.36L84.62 7.36Q84.75 7.79 84.75 8.33L84.75 8.33Q84.75 8.93 84.58 9.68L84.58 9.68Q84.23 11.14 83.56 12.00L83.56 12.00Q82.30 13.58 80.79 13.58L80.79 13.58Q79.30 13.58 78.78 12.00L78.78 12.00Q78.64 11.59 78.64 11.07L78.64 11.07Q78.64 10.47 78.82 9.69ZM88.52 12.62L87.75 13.71Q86.32 13.71 86.32 12.69L86.32 12.69Q86.32 12.49 86.38 12.25L86.38 12.25L88.41 3.46L89.85 2.84L89.92 2.84L87.75 12.25Q87.68 12.55 88.01 12.55L88.01 12.55L88.53 12.55L88.52 12.62ZM92.29 3.82L92.29 3.82Q92.37 3.47 92.66 3.23Q92.96 2.98 93.30 2.98Q93.65 2.98 93.83 3.23L93.83 3.23Q93.96 3.40 93.96 3.62L93.96 3.62Q93.96 3.70 93.93 3.82L93.93 3.82Q93.83 4.18 93.56 4.41L93.56 4.41Q93.26 4.66 92.91 4.66L92.91 4.66Q92.57 4.66 92.38 4.40L92.38 4.40Q92.26 4.24 92.26 4.04L92.26 4.04Q92.26 3.94 92.29 3.82ZM92.62 12.62L91.85 13.71Q90.43 13.71 90.43 12.69L90.43 12.69Q90.43 12.49 90.48 12.25L90.48 12.25L91.86 6.26L93.30 5.65L93.37 5.65L91.85 12.25Q91.78 12.55 92.11 12.55L92.11 12.55L92.63 12.55L92.62 12.62ZM96.20 9.68L96.20 9.68Q96.01 10.53 96.01 11.05L96.01 11.05Q96.01 11.32 96.06 11.51L96.06 11.51Q96.32 12.41 97.08 12.41Q97.85 12.41 98.52 11.51L98.52 11.51Q98.94 10.94 99.23 9.68L99.23 9.68Q99.42 8.84 99.42 8.31L99.42 8.31Q99.42 8.03 99.37 7.85L99.37 7.85Q99.13 6.95 98.34 6.95L98.34 6.95Q97.54 6.95 96.89 7.86L96.89 7.86Q96.49 8.42 96.20 9.68ZM94.83 9.69L94.83 9.69Q95.16 8.25 95.86 7.36L95.86 7.36Q97.10 5.78 98.62 5.78Q100.13 5.78 100.63 7.36L100.63 7.36Q100.77 7.79 100.77 8.33L100.77 8.33Q100.77 8.93 100.60 9.68L100.60 9.68Q100.25 11.14 99.57 12.00L99.57 12.00Q98.32 13.58 96.81 13.58L96.81 13.58Q95.32 13.58 94.79 12.00L94.79 12.00Q94.66 11.59 94.66 11.07L94.66 11.07Q94.66 10.47 94.83 9.69ZM106.03 3.35L107.21 2.84L107.28 2.84L106.52 6.15L105.33 6.66L105.27 6.66L106.03 3.35ZM104.11 3.35L105.29 2.84L105.36 2.84L104.60 6.15L103.41 6.66L103.35 6.66L104.11 3.35Z"></path></g><defs data-v-fde0c5aa=""><linearGradient data-v-fde0c5aa="" gradientTransform="rotate(25)" id="5051a7d8-a090-4e6e-8368-65ec3863d7ea" x1="0%" y1="0%" x2="100%" y2="0%"><stop data-v-fde0c5aa="" offset="0%" stop-color="#8D2CE3" stop-opacity="1"></stop><stop data-v-fde0c5aa="" offset="100%" stop-color="#F7C6F6" stop-opacity="1"></stop></linearGradient></defs><g data-v-fde0c5aa="" id="fe0ec77d-e82e-463c-869f-1f4302a161db" stroke="none" fill="url(#5051a7d8-a090-4e6e-8368-65ec3863d7ea)" transform="matrix(0.8625881556710242,0,0,0.8625881556710242,40,136.2029017261292)"><path d="M31 .995v30H1v-30h30m1-1H0v32h32v-32z"></path><path d="M16 7.045L24.955 16 16 24.955 7.045 16 16 7.045m0-1.414L5.631 16 16 26.369 26.369 16 16 5.631z"></path><path d="M16 12.538L19.462 16 16 19.462 12.538 16 16 12.538m0-1.414L11.124 16 16 20.876 20.876 16 16 11.124z"></path></g><!----></svg>